<?xml version="1.0" standalone="no"?><svg xmlns="http://www.w3.org/2000/svg" viewBox="0 0 1440 320"><path fill="#fff" fill-opacity="1" d="M0,32L26.7,32C53.3,32,107,32,160,58.7C213.3,85,267,139,320,186.7C373.3,235,427,277,480,250.7C533.3,224,587,128,640,85.3C693.3,43,747,53,800,101.3C853.3,149,907,235,960,266.7C1013.3,299,1067,277,1120,245.3C1173.3,213,1227,171,1280,133.3C1333.3,96,1387,64,1413,48L1440,32L1440,320L1413.3,320C1386.7,320,1333,320,1280,320C1226.7,320,1173,320,1120,320C1066.7,320,1013,320,960,320C906.7,320,853,320,800,320C746.7,320,693,320,640,320C586.7,320,533,320,480,320C426.7,320,373,320,320,320C266.7,320,213,320,160,320C106.7,320,53,320,27,320L0,320Z"></path></svg>